<svg width="9" height="16" viewBox="0 0 9 16" fill="none" xmlns="http://www.w3.org/2000/svg">
<path d="M8.53931 0.299446C8.44463 0.204526 8.33216 0.129217 8.20832 0.0778331C8.08449 0.0264493 7.95174 0 7.81768 0C7.68361 0 7.55086 0.0264493 7.42703 0.0778331C7.3032 0.129217 7.19072 0.204526 7.09604 0.299446L0.238461 7.15702C0.16287 7.23246 0.102898 7.32206 0.0619801 7.42071C0.0210618 7.51935 0 7.62509 0 7.73189C0 7.83868 0.0210618 7.94442 0.0619801 8.04307C0.102898 8.14171 0.16287 8.23131 0.238461 8.30675L7.09604 15.1643C7.49559 15.5639 8.13976 15.5639 8.53931 15.1643C8.93886 14.7648 8.93886 14.1206 8.53931 13.7211L2.55422 7.73596L8.54746 1.74272C8.93886 1.34317 8.93886 0.698996 8.53931 0.299446Z" fill="black"/>
</svg>
