<svg width="30" height="30" viewBox="0 0 30 30" fill="none" xmlns="http://www.w3.org/2000/svg">
<rect width="30" height="30" rx="5" fill="#FCAD50"/>
<path fill-rule="evenodd" clip-rule="evenodd" d="M9.16638 20.8337C9.93247 21.5998 10.842 22.2075 11.8429 22.6221C12.8438 23.0367 13.9166 23.2501 15.0001 23.2501C16.0835 23.2501 17.1563 23.0367 18.1572 22.6221C19.1582 22.2075 20.0676 21.5998 20.8337 20.8337C21.5998 20.0676 22.2075 19.1581 22.6221 18.1572C23.0367 17.1562 23.2501 16.0834 23.2501 15C23.2501 13.9166 23.0367 12.8438 22.6221 11.8428C22.2075 10.8419 21.5998 9.93243 20.8337 9.16634C19.2865 7.61915 17.1881 6.74995 15.0001 6.74995C12.812 6.74995 10.7136 7.61915 9.16638 9.16634C7.6192 10.7135 6.75 12.812 6.75 15C6.75 17.1881 7.6192 19.2865 9.16638 20.8337ZM11.1565 20.1398C12.3924 21.0648 13.9203 21.5133 15.46 21.4031C16.9998 21.2929 18.4483 20.6313 19.5398 19.5398C20.6314 18.4482 21.2929 16.9998 21.4031 15.46C21.5133 13.9202 21.0648 12.3923 20.1398 11.1564L17.5924 13.7038C17.4195 13.8708 17.1879 13.9632 16.9476 13.9611C16.7073 13.959 16.4773 13.8626 16.3074 13.6927C16.1374 13.5227 16.041 13.2928 16.0389 13.0525C16.0368 12.8121 16.1292 12.5806 16.2962 12.4077L18.8427 9.86026C17.6066 8.93774 16.0795 8.49123 14.5411 8.60245C13.0026 8.71366 11.5557 9.37517 10.4651 10.4659C9.37448 11.5566 8.71311 13.0036 8.60205 14.5421C8.49099 16.0805 8.93766 17.6075 9.8603 18.8436L12.4077 16.2962C12.5806 16.1292 12.8122 16.0368 13.0525 16.0389C13.2928 16.041 13.5228 16.1374 13.6927 16.3073C13.8627 16.4773 13.9591 16.7072 13.9612 16.9476C13.9633 17.1879 13.8709 17.4195 13.7039 17.5923L11.1565 20.1398Z" fill="white"/>
</svg>
