<svg width="34" height="34" viewBox="0 0 34 34" fill="none" xmlns="http://www.w3.org/2000/svg">
<circle cx="17" cy="17" r="16" fill="#14AD72" stroke="white" stroke-width="2"/>
<path d="M21.8125 11.4531H20.1125L19.2891 10.2113C19.2154 10.103 19.1165 10.0143 19.0007 9.95293C18.885 9.89158 18.756 9.85947 18.625 9.85938H14.375C14.244 9.85947 14.115 9.89158 13.9993 9.95293C13.8835 10.0143 13.7846 10.103 13.7109 10.2113L12.8875 11.4531H11.1875C10.6949 11.4549 10.223 11.6513 9.87466 11.9997C9.52633 12.348 9.32987 12.8199 9.32812 13.3125V20.75C9.32987 21.2426 9.52633 21.7145 9.87466 22.0628C10.223 22.4112 10.6949 22.6076 11.1875 22.6094H21.8125C22.3051 22.6076 22.777 22.4112 23.1253 22.0628C23.4737 21.7145 23.6701 21.2426 23.6719 20.75V13.3125C23.6701 12.8199 23.4737 12.348 23.1253 11.9997C22.777 11.6513 22.3051 11.4549 21.8125 11.4531ZM22.0781 20.75C22.0781 20.8204 22.0501 20.888 22.0003 20.9378C21.9505 20.9876 21.8829 21.0156 21.8125 21.0156H11.1875C11.1171 21.0156 11.0495 20.9876 10.9997 20.9378C10.9499 20.888 10.9219 20.8204 10.9219 20.75V13.3125C10.9219 13.2421 10.9499 13.1745 10.9997 13.1247C11.0495 13.0749 11.1171 13.0469 11.1875 13.0469H13.3125C13.4435 13.0468 13.5725 13.0147 13.6882 12.9533C13.804 12.892 13.9029 12.8033 13.9766 12.6949L14.8 11.4531H18.2L19.0234 12.6949C19.0971 12.8033 19.196 12.892 19.3118 12.9533C19.4275 13.0147 19.5565 13.0468 19.6875 13.0469H21.8125C21.8829 13.0469 21.9505 13.0749 22.0003 13.1247C22.0501 13.1745 22.0781 13.2421 22.0781 13.3125V20.75ZM16.5 13.5781C15.8696 13.5781 15.2533 13.7651 14.7291 14.1153C14.2049 14.4656 13.7964 14.9634 13.5551 15.5458C13.3139 16.1283 13.2508 16.7692 13.3737 17.3875C13.4967 18.0058 13.8003 18.5737 14.2461 19.0195C14.6919 19.4653 15.2598 19.7689 15.8781 19.8919C16.4965 20.0149 17.1374 19.9517 17.7198 19.7105C18.3022 19.4692 18.8001 19.0607 19.1503 18.5365C19.5006 18.0123 19.6875 17.3961 19.6875 16.7656C19.6875 15.9202 19.3517 15.1095 18.7539 14.5117C18.1561 13.9139 17.3454 13.5781 16.5 13.5781ZM16.5 18.3594C16.1848 18.3594 15.8767 18.2659 15.6146 18.0908C15.3525 17.9157 15.1482 17.6667 15.0276 17.3755C14.9069 17.0843 14.8754 16.7639 14.9369 16.4547C14.9984 16.1455 15.1502 15.8616 15.373 15.6387C15.5959 15.4158 15.8799 15.264 16.1891 15.2025C16.4982 15.141 16.8187 15.1726 17.1099 15.2932C17.4011 15.4138 17.65 15.6181 17.8252 15.8802C18.0003 16.1423 18.0938 16.4504 18.0938 16.7656C18.092 17.1878 17.9235 17.5921 17.625 17.8906C17.3265 18.1892 16.9222 18.3576 16.5 18.3594Z" fill="white"/>
</svg>
