<svg xmlns="http://www.w3.org/2000/svg" version="1.1" xmlns:xlink="http://www.w3.org/1999/xlink" xmlns:svgjs="http://svgjs.com/svgjs" width="30" height="30" x="0" y="0" viewBox="0 0 512 512" style="enable-background:new 0 0 512 512" xml:space="preserve" class=""><g><g fill-rule="evenodd"><path fill="#ff3f5b" d="M443.3 0H68.7A68.781 68.781 0 0 0 0 68.7v374.6A68.779 68.779 0 0 0 68.7 512h374.6a68.778 68.778 0 0 0 68.7-68.7V68.7A68.781 68.781 0 0 0 443.3 0z" data-original="#ff3f5b" class=""></path><path fill="#ffffff" d="M359.45 168.73h-51v-12.86A36.913 36.913 0 0 0 271.579 119h-31.158a36.913 36.913 0 0 0-36.872 36.87v12.86h-51a12 12 0 0 0 0 24h6.44v168.38a31.932 31.932 0 0 0 31.89 31.89H321.12a31.93 31.93 0 0 0 31.889-31.89V192.73h6.439a12 12 0 0 0 0-24zm-131.9-12.86A12.878 12.878 0 0 1 240.419 143h31.162a12.879 12.879 0 0 1 12.868 12.87v12.86h-56.9v-12.86zm101.46 205.24a8 8 0 0 1-7.891 7.89H190.881a8 8 0 0 1-7.892-7.89V192.73H329.01zm-111.87-28.02v-100.8a12 12 0 1 1 24 0v100.8a12 12 0 0 1-24 0zm53.721 0v-100.8a12 12 0 1 1 24 0v100.8a12 12 0 1 1-24 0z" data-original="#ffffff"></path></g></g></svg>