<svg width="30" height="30" viewBox="0 0 30 30" fill="none" xmlns="http://www.w3.org/2000/svg">
<rect width="30" height="30" rx="5" fill="#A2CE61"/>
<path d="M14.1665 20H15.8332V18.3333H14.1665V20ZM14.9998 6.66666C10.3998 6.66666 6.6665 10.4 6.6665 15C6.6665 19.6 10.3998 23.3333 14.9998 23.3333C19.5998 23.3333 23.3332 19.6 23.3332 15C23.3332 10.4 19.5998 6.66666 14.9998 6.66666ZM14.9998 21.6667C11.3248 21.6667 8.33317 18.675 8.33317 15C8.33317 11.325 11.3248 8.33333 14.9998 8.33333C18.6748 8.33333 21.6665 11.325 21.6665 15C21.6665 18.675 18.6748 21.6667 14.9998 21.6667ZM14.9998 10C13.1582 10 11.6665 11.4917 11.6665 13.3333H13.3332C13.3332 12.4167 14.0832 11.6667 14.9998 11.6667C15.9165 11.6667 16.6665 12.4167 16.6665 13.3333C16.6665 15 14.1665 14.7917 14.1665 17.5H15.8332C15.8332 15.625 18.3332 15.4167 18.3332 13.3333C18.3332 11.4917 16.8415 10 14.9998 10Z" fill="white"/>
</svg>
