<svg width="30" height="30" viewBox="0 0 30 30" fill="none" xmlns="http://www.w3.org/2000/svg">
<rect width="30" height="30" rx="5" fill="#FC5079"/>
<path d="M17.1667 11.3333V9.66667C17.1667 9.22464 16.9911 8.80072 16.6785 8.48816C16.366 8.17559 15.942 8 15.5 8H9.66667C9.22464 8 8.80072 8.17559 8.48816 8.48816C8.17559 8.80072 8 9.22464 8 9.66667V19.6667C8 20.1087 8.17559 20.5326 8.48816 20.8452C8.80072 21.1577 9.22464 21.3333 9.66667 21.3333H15.5C15.942 21.3333 16.366 21.1577 16.6785 20.8452C16.9911 20.5326 17.1667 20.1087 17.1667 19.6667V18" stroke="white" stroke-width="2" stroke-linecap="round" stroke-linejoin="round"/>
<path d="M11.3335 14.6667H23.0002M23.0002 14.6667L20.5002 12.1667M23.0002 14.6667L20.5002 17.1667" stroke="white" stroke-width="2" stroke-linecap="round" stroke-linejoin="round"/>
</svg>
