<svg width="20" height="21" viewBox="0 0 20 21" fill="none" xmlns="http://www.w3.org/2000/svg">
<path d="M5.8426 18.9931L0.750011 20.125L1.88191 15.0324C1.13649 13.6381 0.74763 12.081 0.750011 10.5C0.750011 5.18411 5.05912 0.875 10.375 0.875C15.6909 0.875 20 5.18411 20 10.5C20 15.8159 15.6909 20.125 10.375 20.125C8.79396 20.1274 7.23689 19.7385 5.8426 18.9931ZM6.12172 16.9593L6.75023 17.2962C7.86534 17.8921 9.11066 18.2026 10.375 18.2C11.8979 18.2 13.3866 17.7484 14.6529 16.9023C15.9192 16.0562 16.9061 14.8536 17.4889 13.4467C18.0717 12.0397 18.2242 10.4915 17.927 8.9978C17.6299 7.50415 16.8966 6.13214 15.8197 5.05528C14.7429 3.97841 13.3709 3.24506 11.8772 2.94795C10.3835 2.65085 8.83534 2.80333 7.42835 3.38613C6.02136 3.96892 4.81878 4.95585 3.97269 6.22211C3.12661 7.48836 2.67501 8.97708 2.67501 10.5C2.67501 11.784 2.98782 13.0198 3.57976 14.1248L3.91567 14.7533L3.28523 17.5898L6.12172 16.9593Z" fill="black"/>
</svg>
