<svg width="30" height="30" viewBox="0 0 30 30" fill="none" xmlns="http://www.w3.org/2000/svg">
<rect width="30" height="30" rx="5" fill="#D838DB"/>
<path d="M12.8779 6.842C13.0086 6.51887 13.2329 6.24215 13.5219 6.0473C13.8109 5.85245 14.1516 5.74836 14.5001 5.74836C14.8487 5.74836 15.1893 5.85245 15.4784 6.0473C15.7674 6.24215 15.9916 6.51887 16.1224 6.842C17.4163 7.19785 18.5576 7.96861 19.371 9.03592C20.1845 10.1032 20.6251 11.408 20.6251 12.75V16.8599L22.2281 19.2644C22.316 19.3961 22.3665 19.5493 22.3742 19.7075C22.3819 19.8658 22.3465 20.0231 22.2718 20.1628C22.197 20.3025 22.0858 20.4192 21.9499 20.5006C21.814 20.582 21.6585 20.625 21.5001 20.625H17.532C17.4267 21.354 17.0622 22.0206 16.5054 22.5027C15.9486 22.9848 15.2367 23.2502 14.5001 23.2502C13.7636 23.2502 13.0517 22.9848 12.4949 22.5027C11.9381 22.0206 11.5736 21.354 11.4683 20.625H7.50013C7.34172 20.625 7.18627 20.582 7.05037 20.5006C6.91448 20.4192 6.80322 20.3025 6.72849 20.1628C6.65376 20.0231 6.61834 19.8658 6.62603 19.7075C6.63372 19.5493 6.68421 19.3961 6.77213 19.2644L8.37513 16.8599V12.75C8.37513 9.929 10.2826 7.5525 12.8779 6.842ZM13.2629 20.625C13.3532 20.8811 13.5208 21.1028 13.7425 21.2596C13.9642 21.4165 14.229 21.5007 14.5006 21.5007C14.7721 21.5007 15.037 21.4165 15.2586 21.2596C15.4803 21.1028 15.6479 20.8811 15.7383 20.625H13.262H13.2629ZM14.5001 8.375C13.3398 8.375 12.227 8.83594 11.4065 9.65641C10.5861 10.4769 10.1251 11.5897 10.1251 12.75V17.125C10.1252 17.2978 10.074 17.4668 9.97813 17.6106L9.13551 18.875H19.8639L19.0213 17.6106C18.9257 17.4667 18.8748 17.2977 18.8751 17.125V12.75C18.8751 11.5897 18.4142 10.4769 17.5937 9.65641C16.7733 8.83594 15.6605 8.375 14.5001 8.375Z" fill="white"/>
</svg>
