<svg width="18" height="22" viewBox="0 0 18 22" fill="none" xmlns="http://www.w3.org/2000/svg">
<path d="M1.70081 6.36813C1.38529 4.28786 2.8544 2.41462 5.09865 1.72727C5.49712 1.60531 5.92711 1.63997 6.30091 1.82417C6.67471 2.00838 6.96414 2.32825 7.11018 2.71855L7.82983 4.63982C7.94553 4.94887 7.96628 5.28544 7.88941 5.60636C7.81253 5.92728 7.64155 6.21792 7.39837 6.44101L5.25765 8.40452C5.15207 8.50151 5.0734 8.62418 5.02928 8.76059C4.98517 8.897 4.97711 9.04251 5.00589 9.18296L5.02494 9.26909L5.07794 9.48523C5.12515 9.66742 5.19637 9.92414 5.29657 10.2306C5.49532 10.8392 5.8125 11.6574 6.28453 12.4748C6.75657 13.2922 7.30645 13.9762 7.73377 14.4524C7.95632 14.7003 8.18895 14.939 8.43106 15.1679L8.49731 15.2292C8.60438 15.324 8.7342 15.3895 8.8741 15.4192C9.014 15.449 9.15923 15.442 9.29563 15.3989L12.0666 14.5269C12.3814 14.4279 12.7186 14.4253 13.035 14.5193C13.3513 14.6133 13.6324 14.7996 13.8421 15.0544L15.153 16.6461C15.6996 17.3086 15.635 18.2825 15.0064 18.868C13.2889 20.4688 10.9271 20.7975 9.28403 19.4758C7.27014 17.8515 5.57234 15.8705 4.27548 13.6317C2.9679 11.3944 2.09439 8.93032 1.70081 6.36896V6.36813ZM6.74083 9.29145L8.51801 7.66168C9.00435 7.21551 9.34633 6.63422 9.50008 5.99238C9.65382 5.35054 9.61233 4.6774 9.38093 4.0593L8.66045 2.13803C8.36652 1.35306 7.78429 0.70974 7.03245 0.339204C6.28061 -0.0313313 5.41575 -0.101186 4.61419 0.143879C1.82752 0.996857 -0.410101 3.49534 0.0635915 6.61657C0.488422 9.38421 1.4316 12.0469 2.84364 14.4648C4.24241 16.8791 6.07355 19.0154 8.24555 20.7669C10.7093 22.7461 14.0003 22.0712 16.136 20.0795C16.7471 19.51 17.118 18.7287 17.1729 17.8951C17.2278 17.0616 16.9627 16.2384 16.4317 15.5935L15.1207 14.0019C14.7012 13.4921 14.139 13.1193 13.5061 12.9313C12.8732 12.7433 12.1986 12.7487 11.5689 12.9468L9.26913 13.6706C9.16619 13.5647 9.06541 13.4568 8.96686 13.3468C8.49423 12.8239 8.07607 12.2543 7.71886 11.6467C7.37112 11.0334 7.08671 10.3863 6.87002 9.71545C6.82408 9.57501 6.781 9.43365 6.74083 9.29145Z" fill="black"/>
</svg>
