<svg width="30" height="30" viewBox="0 0 30 30" fill="none" xmlns="http://www.w3.org/2000/svg">
<rect width="30" height="30" rx="5" fill="#F99E5C"/>
<path d="M14.0832 19.5833H15.9165V14.0833H14.0832V19.5833ZM14.9998 12.25C15.2596 12.25 15.4774 12.162 15.6534 11.986C15.8288 11.8106 15.9165 11.5931 15.9165 11.3333C15.9165 11.0736 15.8288 10.8557 15.6534 10.6797C15.4774 10.5044 15.2596 10.4167 14.9998 10.4167C14.7401 10.4167 14.5226 10.5044 14.3472 10.6797C14.1712 10.8557 14.0832 11.0736 14.0832 11.3333C14.0832 11.5931 14.1712 11.8106 14.3472 11.986C14.5226 12.162 14.7401 12.25 14.9998 12.25ZM14.9998 24.1667C12.8762 23.6319 11.1233 22.4134 9.74092 20.511C8.35798 18.6092 7.6665 16.4972 7.6665 14.175V8.58333L14.9998 5.83333L22.3332 8.58333V14.175C22.3332 16.4972 21.642 18.6092 20.2597 20.511C18.8767 22.4134 17.1234 23.6319 14.9998 24.1667ZM14.9998 22.2417C16.5887 21.7375 17.9026 20.7292 18.9415 19.2167C19.9804 17.7042 20.4998 16.0236 20.4998 14.175V9.84375L14.9998 7.78125L9.49984 9.84375V14.175C9.49984 16.0236 10.0193 17.7042 11.0582 19.2167C12.0971 20.7292 13.4109 21.7375 14.9998 22.2417Z" fill="white"/>
</svg>
