<svg width="30" height="30" viewBox="0 0 30 30" fill="none" xmlns="http://www.w3.org/2000/svg">
<rect width="30" height="30" rx="5" fill="#32AC6A"/>
<path d="M22.5 23.25H20.75V21.5C20.75 20.8038 20.4734 20.1361 19.9812 19.6438C19.4889 19.1516 18.8212 18.875 18.125 18.875H12.875C12.1788 18.875 11.5111 19.1516 11.0188 19.6438C10.5266 20.1361 10.25 20.8038 10.25 21.5V23.25H8.5V21.5C8.5 20.3397 8.96094 19.2269 9.78141 18.4064C10.6019 17.5859 11.7147 17.125 12.875 17.125H18.125C19.2853 17.125 20.3981 17.5859 21.2186 18.4064C22.0391 19.2269 22.5 20.3397 22.5 21.5V23.25ZM15.5 15.375C14.8106 15.375 14.1279 15.2392 13.4909 14.9754C12.854 14.7115 12.2752 14.3248 11.7877 13.8373C11.3002 13.3498 10.9135 12.771 10.6496 12.1341C10.3858 11.4971 10.25 10.8144 10.25 10.125C10.25 9.43556 10.3858 8.75287 10.6496 8.11591C10.9135 7.47895 11.3002 6.9002 11.7877 6.41269C12.2752 5.92518 12.854 5.53847 13.4909 5.27463C14.1279 5.0108 14.8106 4.875 15.5 4.875C16.8924 4.875 18.2277 5.42812 19.2123 6.41269C20.1969 7.39726 20.75 8.73261 20.75 10.125C20.75 11.5174 20.1969 12.8527 19.2123 13.8373C18.2277 14.8219 16.8924 15.375 15.5 15.375ZM15.5 13.625C16.4283 13.625 17.3185 13.2563 17.9749 12.5999C18.6313 11.9435 19 11.0533 19 10.125C19 9.19674 18.6313 8.3065 17.9749 7.65013C17.3185 6.99375 16.4283 6.625 15.5 6.625C14.5717 6.625 13.6815 6.99375 13.0251 7.65013C12.3687 8.3065 12 9.19674 12 10.125C12 11.0533 12.3687 11.9435 13.0251 12.5999C13.6815 13.2563 14.5717 13.625 15.5 13.625Z" fill="white"/>
</svg>
