<svg width="7" height="12" viewBox="0 0 7 12" fill="none" xmlns="http://www.w3.org/2000/svg">
<path d="M0.232504 0.231698C0.305764 0.158253 0.392792 0.0999824 0.488606 0.0602238C0.58442 0.0204653 0.687137 0 0.790873 0C0.894608 0 0.997325 0.0204653 1.09314 0.0602238C1.18895 0.0999824 1.27598 0.158253 1.34924 0.231698L6.65533 5.53779C6.71382 5.59616 6.76023 5.66549 6.79189 5.74181C6.82355 5.81814 6.83984 5.89996 6.83984 5.98259C6.83984 6.06522 6.82355 6.14704 6.79189 6.22337C6.76023 6.29969 6.71382 6.36902 6.65533 6.42739L1.34924 11.7335C1.04009 12.0426 0.541658 12.0426 0.232504 11.7335C-0.0766497 11.4243 -0.0766497 10.9259 0.232504 10.6167L4.8635 5.98575L0.226195 1.34844C-0.0766497 1.03928 -0.0766497 0.540852 0.232504 0.231698Z" fill="#C6C6C6"/>
</svg>
