<svg width="15" height="15" viewBox="0 0 15 15" fill="none" xmlns="http://www.w3.org/2000/svg">
<path fill-rule="evenodd" clip-rule="evenodd" d="M1.95832 5.91667C1.95832 4.86685 2.37536 3.86003 3.11769 3.1177C3.86003 2.37537 4.86684 1.95833 5.91666 1.95833C6.96647 1.95833 7.97329 2.37537 8.71562 3.1177C9.45796 3.86003 9.87499 4.86685 9.87499 5.91667C9.87499 6.96648 9.45796 7.9733 8.71562 8.71563C7.97329 9.45796 6.96647 9.875 5.91666 9.875C4.86684 9.875 3.86003 9.45796 3.11769 8.71563C2.37536 7.9733 1.95832 6.96648 1.95832 5.91667ZM5.91666 0.375C5.03891 0.375002 4.17371 0.583505 3.39231 0.983342C2.61092 1.38318 1.93567 1.96291 1.42219 2.6748C0.908704 3.38668 0.571666 4.21036 0.438829 5.078C0.305992 5.94565 0.381156 6.83243 0.658131 7.66534C0.935106 8.49825 1.40597 9.25345 2.03195 9.86876C2.65792 10.4841 3.42111 10.9419 4.25865 11.2045C5.0962 11.4671 5.98415 11.527 6.84938 11.3793C7.71461 11.2315 8.53237 10.8804 9.23533 10.3548L13.2728 14.393C13.4213 14.5416 13.6226 14.6251 13.8327 14.6252C14.0427 14.6252 14.2441 14.5419 14.3926 14.3934C14.5412 14.245 14.6247 14.0436 14.6248 13.8336C14.6248 13.6236 14.5415 13.4222 14.393 13.2736L10.3555 9.23613C10.9717 8.41241 11.3465 7.43344 11.4378 6.40882C11.5292 5.3842 11.3335 4.35438 10.8728 3.43464C10.4121 2.5149 9.70444 1.74156 8.82912 1.20119C7.95379 0.660813 6.94534 0.374742 5.91666 0.375Z" fill="#646464"/>
</svg>
