<svg width="22" height="20" viewBox="0 0 22 20" fill="none" xmlns="http://www.w3.org/2000/svg">
<path d="M8.38009 18.7867C6.86395 18.334 5.49084 17.4965 4.39442 16.3557C4.74719 15.9373 4.96709 15.4232 5.026 14.8791C5.0849 14.335 4.98013 13.7857 4.72508 13.3015C4.47003 12.8173 4.07631 12.4202 3.5943 12.161C3.11229 11.9018 2.56391 11.7924 2.01934 11.8466C1.89527 11.2389 1.83293 10.6202 1.83325 9.99999C1.83325 9.04208 1.97992 8.11808 2.25309 7.24999H2.29159C2.75897 7.25014 3.21869 7.13117 3.62732 6.9043C4.03596 6.67742 4.38002 6.35015 4.62704 5.95336C4.87405 5.55658 5.01586 5.10339 5.03907 4.63658C5.06229 4.16977 4.96614 3.70474 4.75971 3.28541C5.83432 2.28479 7.1339 1.55742 8.54875 1.1647C8.77901 1.6168 9.12985 1.99639 9.56245 2.26147C9.99506 2.52655 10.4926 2.66679 10.9999 2.66666C11.5073 2.66679 12.0048 2.52655 12.4374 2.26147C12.87 1.99639 13.2208 1.6168 13.4511 1.1647C14.8659 1.55742 16.1655 2.28479 17.2401 3.28541C17.0322 3.70768 16.9361 4.17625 16.9611 4.64627C16.9861 5.1163 17.1313 5.57204 17.3828 5.96988C17.6344 6.36772 17.9838 6.69434 18.3977 6.91848C18.8116 7.14261 19.2761 7.25676 19.7468 7.24999C20.0259 8.13995 20.1674 9.0673 20.1666 9.99999C20.1666 10.6325 20.1024 11.2503 19.9805 11.8471C19.4359 11.7928 18.8875 11.9023 18.4055 12.1615C17.9235 12.4206 17.5298 12.8177 17.2748 13.3019C17.0197 13.7861 16.9149 14.3354 16.9738 14.8795C17.0327 15.4236 17.2527 15.9378 17.6054 16.3562C16.5089 17.4968 15.1358 18.3342 13.6198 18.7867C13.4417 18.2318 13.0921 17.7477 12.6212 17.4043C12.1504 17.0609 11.5827 16.8759 10.9999 16.8759C10.4172 16.8759 9.84943 17.0609 9.3786 17.4043C8.90776 17.7477 8.55812 18.2318 8.38009 18.7867Z" stroke="#1A2E35" stroke-width="2.08333" stroke-linejoin="round"/>
<path d="M11.0001 13.2083C11.4214 13.2083 11.8386 13.1253 12.2279 12.9641C12.6171 12.8029 12.9708 12.5665 13.2687 12.2686C13.5666 11.9707 13.803 11.617 13.9642 11.2278C14.1254 10.8385 14.2084 10.4213 14.2084 9.99999C14.2084 9.57867 14.1254 9.16147 13.9642 8.77221C13.803 8.38296 13.5666 8.02928 13.2687 7.73136C12.9708 7.43343 12.6171 7.19711 12.2279 7.03588C11.8386 6.87464 11.4214 6.79166 11.0001 6.79166C10.1492 6.79166 9.33313 7.12968 8.73145 7.73136C8.12977 8.33304 7.79175 9.14909 7.79175 9.99999C7.79175 10.8509 8.12977 11.6669 8.73145 12.2686C9.33313 12.8703 10.1492 13.2083 11.0001 13.2083Z" stroke="#1A2E35" stroke-width="2.08333" stroke-linejoin="round"/>
</svg>
